<?xml version="1.0" standalone="no"?>
<!DOCTYPE svg PUBLIC "-//W3C//DTD SVG 20010904//EN"
 "http://www.w3.org/TR/2001/REC-SVG-20010904/DTD/svg10.dtd">
<svg version="1.0" xmlns="http://www.w3.org/2000/svg"
 width="512.000000pt" height="512.000000pt" viewBox="0 0 512.000000 512.000000"
 preserveAspectRatio="xMidYMid meet">
<metadata>
Created by potrace 1.11, written by Peter Selinger 2001-2013
</metadata>
<g transform="translate(0.000000,512.000000) scale(0.100000,-0.100000)"
fill="#000000" stroke="none">
<path d="M2598 4115 c-2 -2 -58 -5 -126 -6 -67 -1 -150 -6 -185 -11 -34 -4
-78 -10 -97 -12 -87 -12 -132 -20 -225 -41 -97 -23 -279 -77 -320 -95 -11 -5
-58 -25 -105 -43 -119 -49 -276 -129 -400 -204 -102 -63 -272 -181 -318 -221
-13 -11 -42 -35 -65 -54 -191 -153 -418 -410 -570 -644 -79 -122 -99 -177
-100 -270 0 -86 27 -151 124 -295 414 -619 1097 -1088 1799 -1235 101 -21 102
-22 152 -29 87 -12 115 -15 188 -21 721 -56 1394 167 2013 666 215 173 498
504 624 730 92 164 77 270 -68 486 -189 282 -439 541 -719 745 -383 279 -834
468 -1255 524 -27 4 -61 9 -75 11 -14 2 -74 7 -135 10 -60 3 -115 7 -122 9 -6
2 -13 2 -15 0z m31 -419 c39 -21 62 -60 64 -111 3 -89 -47 -130 -169 -139
-186 -14 -347 -111 -448 -269 -58 -91 -74 -149 -91 -318 -10 -105 -141 -155
-216 -83 -38 36 -50 83 -43 168 17 208 108 393 268 543 124 116 256 184 411
212 117 21 178 20 224 -3z m-1160 -242 c-48 -87 -102 -238 -124 -349 -25 -127
-25 -332 0 -480 3 -16 19 -74 36 -128 100 -316 342 -594 648 -744 86 -42 221
-87 296 -98 17 -3 55 -9 87 -13 63 -10 257 -8 333 3 113 15 254 58 355 108
238 116 460 336 579 574 168 336 165 755 -5 1096 -19 37 -32 67 -29 67 9 0
197 -112 262 -156 282 -193 517 -431 736 -747 l48 -68 -33 -47 c-146 -215
-351 -445 -528 -593 -36 -30 -67 -56 -70 -59 -7 -7 -80 -62 -106 -80 -126 -86
-216 -142 -307 -191 -152 -81 -379 -170 -512 -200 -27 -6 -59 -13 -70 -16 -23
-6 -101 -20 -160 -29 -22 -3 -51 -8 -65 -11 -14 -2 -122 -5 -240 -7 -210 -3
-358 8 -495 38 -372 81 -649 208 -974 449 -97 71 -120 90 -229 192 -147 136
-291 303 -411 477 l-53 76 67 99 c192 279 472 560 720 721 72 47 250 152 257
152 4 0 -2 -16 -13 -36z"/>
</g>
</svg>
